<?xml version="1.0" encoding="utf-8"?>
<!-- Generator: Adobe Illustrator 25.2.3, SVG Export Plug-In . SVG Version: 6.00 Build 0)  -->
<svg version="1.1" id="Слой_1" xmlns="http://www.w3.org/2000/svg" xmlns:xlink="http://www.w3.org/1999/xlink" x="0px" y="0px"
	 viewBox="0 0 150 150" style="enable-background:new 0 0 150 150;" xml:space="preserve">
<path d="M95.92,8.96c0.01,0.18,0.03,0.36,0.03,0.55c0,5.54,0,11.08,0,16.63c0,0.2,0,0.39,0,0.62c-1.98,0-3.9,0-5.91,0
	c0-2.87,0-5.73,0-8.59c-0.04-0.01-0.09-0.02-0.13-0.02c-1.32,2.04-2.64,4.08-4.03,6.21c-1.38-2.13-2.71-4.19-4.05-6.25
	c-0.03,0.01-0.06,0.02-0.1,0.03c0,2.85,0,5.7,0,8.6c-1.96,0-3.87,0-5.84,0c0-0.23,0-0.45,0-0.66c0-5.49,0-10.97,0-16.46
	c0-0.22-0.01-0.44-0.02-0.66c2.09,0,4.18,0,6.28,0c1.24,2.07,2.48,4.13,3.77,6.27c1.31-2.15,2.57-4.21,3.83-6.27
	C91.81,8.96,93.87,8.96,95.92,8.96z"/>
<path d="M54.3,8.96c-0.01,0.22-0.03,0.44-0.03,0.66c0,5.49,0,10.97,0,16.46c0,0.22,0,0.43,0,0.68c-2,0-3.94,0-5.95,0
	c0-1.96,0-3.92,0-5.9c-1.85,0-3.62,0-5.46,0c0,1.95,0,3.91,0,5.9c-2,0-3.94,0-5.97,0c0-5.92,0-11.86,0-17.79c1.98,0,3.96,0,5.95,0
	c0,1.94,0,3.87,0,5.84c1.84,0,3.62,0,5.47,0c0-0.25,0-0.47,0-0.68c0.01-1.72,0.03-3.44,0.04-5.16C50.33,8.96,52.32,8.96,54.3,8.96z"
	/>
<path d="M73.35,8.96c-0.02,1.65-0.03,3.3-0.05,4.95c0,0.31,0,0.61,0,0.97c-1.78,0-3.48,0-5.24,0c0,3.98,0,7.92,0,11.88
	c-2,0-3.93,0-5.94,0c0-3.93,0-7.86,0-11.86c-1.78,0-3.49,0-5.29,0c0-2.02,0-3.98,0-5.93C62.34,8.96,67.84,8.96,73.35,8.96z"/>
<path d="M104.85,8.96c0.01,0.22,0.04,0.44,0.04,0.66c0,3.52,0,7.04,0,10.56c0,0.22,0,0.43,0,0.7c2.81,0,5.55,0,8.34,0
	c0,1.99,0,3.92,0,5.88c-4.76,0-9.48,0-14.3,0c0-0.23,0-0.46,0-0.69c0-5.48,0-10.97,0-16.45c0-0.22-0.02-0.44-0.02-0.66
	C100.88,8.96,102.86,8.96,104.85,8.96z"/>
<path d="M28.2,34.96c31.22,0,62.38,0,93.61,0c-0.09,1.03-0.17,2.05-0.26,3.06c-0.31,3.53-0.63,7.05-0.95,10.58
	c-0.35,3.93-0.71,7.86-1.06,11.78c-0.31,3.47-0.62,6.94-0.93,10.42c-0.35,3.93-0.7,7.86-1.05,11.78c-0.31,3.47-0.62,6.94-0.93,10.42
	c-0.35,3.93-0.7,7.86-1.05,11.78c-0.31,3.45-0.62,6.91-0.92,10.36c-0.35,3.96-0.71,7.93-1.06,11.89c-0.09,0.99-0.2,1.97-0.25,2.96
	c-0.02,0.39-0.18,0.53-0.53,0.63c-8.63,2.39-17.27,4.78-25.9,7.17c-3.8,1.05-7.59,2.11-11.39,3.15c-0.32,0.09-0.7,0.12-1.01,0.03
	c-12.4-3.43-24.79-6.88-37.18-10.3c-0.47-0.13-0.65-0.31-0.69-0.83c-0.55-6.38-1.13-12.75-1.7-19.13
	c-0.53-5.97-1.05-11.95-1.58-17.93c-0.57-6.38-1.15-12.75-1.72-19.13c-0.53-5.97-1.05-11.95-1.58-17.93
	c-0.57-6.38-1.15-12.75-1.72-19.13C28.28,36.08,28.24,35.55,28.2,34.96z M58.41,66.18c15.01,0,29.92,0,44.86,0
	c0.35-3.92,0.7-7.78,1.05-11.68c-19.6,0-39.13,0-58.7,0c1.05,11.82,2.11,23.6,3.16,35.42c13.56,0,27.06,0,40.6,0
	c-0.03,0.47-0.06,0.89-0.09,1.31c-0.39,4.4-0.8,8.81-1.17,13.21c-0.04,0.49-0.19,0.73-0.69,0.86c-3.99,1.05-7.96,2.14-11.95,3.2
	c-0.33,0.09-0.73,0.09-1.06,0c-4.04-1.07-8.07-2.18-12.1-3.26c-0.33-0.09-0.43-0.23-0.46-0.55c-0.23-2.74-0.5-5.48-0.72-8.22
	c-0.04-0.57-0.21-0.72-0.78-0.72c-3.45,0.03-6.9,0.01-10.35,0.01c-0.21,0-0.43,0-0.65,0c0,0.26-0.01,0.45,0,0.63
	c0.15,1.77,0.31,3.54,0.47,5.32c0.35,3.93,0.72,7.85,1.04,11.78c0.04,0.5,0.18,0.72,0.68,0.86c7.68,2.11,15.36,4.25,23.04,6.37
	c0.23,0.06,0.51,0.06,0.74,0c1.21-0.31,2.4-0.65,3.6-0.99c6.5-1.8,12.99-3.6,19.49-5.39c0.41-0.11,0.58-0.26,0.62-0.72
	c0.27-3.36,0.59-6.72,0.89-10.09c0.35-3.93,0.7-7.86,1.06-11.78c0.32-3.53,0.63-7.05,0.95-10.58c0.09-0.98,0.17-1.95,0.26-2.99
	c-14.27,0-28.47,0-42.71,0C59.13,74.19,58.78,70.23,58.41,66.18z"/>
</svg>
