<?xml version="1.0" encoding="utf-8"?>
<!-- Generator: Adobe Illustrator 25.2.3, SVG Export Plug-In . SVG Version: 6.00 Build 0)  -->
<svg version="1.1" id="Слой_1" xmlns="http://www.w3.org/2000/svg" xmlns:xlink="http://www.w3.org/1999/xlink" x="0px" y="0px"
	 viewBox="0 0 150 150" style="enable-background:new 0 0 150 150;" xml:space="preserve">
<path d="M17.2,75c0-16.53,0-33.06,0-49.6c0-5.29,2.93-8.21,8.24-8.21c33.06,0,66.12,0,99.18,0c5.22,0,8.17,2.93,8.17,8.14
	c0,33.11,0,66.22,0,99.33c0,5.2-2.95,8.14-8.17,8.14c-33.1,0-66.21,0-99.31,0c-5.12,0-8.1-2.97-8.11-8.07
	C17.2,108.15,17.2,91.58,17.2,75z M86.02,110.78c2.78,5.39,6.83,8.93,12.58,10.35c3.26,0.8,6.56,0.83,9.87,0.36
	c9.89-1.41,15.29-9.42,12.75-18.94c-1.1-4.13-3.87-6.94-7.47-8.9c-3.18-1.72-6.55-3.09-9.79-4.7c-1.35-0.67-2.7-1.43-3.85-2.4
	c-1.43-1.21-1.64-2.93-1.17-4.69c0.45-1.67,1.66-2.69,3.29-3.02c2.73-0.55,5.17,0.06,6.98,2.35c0.47,0.59,0.88,1.23,1.37,1.92
	c2.7-1.74,5.35-3.45,8.08-5.2c-2.17-3.9-5.11-6.79-9.43-7.69c-2.59-0.54-5.34-0.72-7.98-0.53c-6.22,0.45-11.18,4.69-12.5,10.3
	c-1.49,6.31,0.78,12.38,6.22,15.93c2.31,1.5,4.89,2.57,7.36,3.83c2.07,1.05,4.21,1.98,6.19,3.17c1.93,1.16,2.51,3.11,2.16,5.26
	c-0.35,2.13-1.77,3.39-3.79,3.9c-4.01,1-7.45,0.04-10.12-3.21c-0.92-1.12-1.72-2.34-2.6-3.55
	C91.43,107.18,88.75,108.96,86.02,110.78z M69.5,69.58c0,0.69,0,1.26,0,1.83c0,10.52,0,21.05-0.01,31.57c0,1.12-0.03,2.24-0.16,3.35
	c-0.35,2.94-1.96,4.34-4.91,4.44c-2.92,0.1-5.19-1.1-6.99-3.32c-0.47-0.58-0.9-1.21-1.37-1.86c-2.87,1.74-5.69,3.45-8.54,5.17
	c0.14,0.31,0.22,0.52,0.32,0.71c3.58,6.95,11.27,11.08,19.04,10.23c7.21-0.78,11.6-4.39,13.06-10.93c0.41-1.86,0.53-3.82,0.53-5.73
	c0.05-11.28,0.02-22.57,0.02-33.85c0-0.52,0-1.04,0-1.63C76.78,69.58,73.26,69.58,69.5,69.58z"/>
</svg>
