<?xml version="1.0" encoding="utf-8"?>
<!-- Generator: Adobe Illustrator 26.0.2, SVG Export Plug-In . SVG Version: 6.00 Build 0)  -->
<svg version="1.1" id="Layer_1" xmlns="http://www.w3.org/2000/svg" xmlns:xlink="http://www.w3.org/1999/xlink" x="0px" y="0px"
	 viewBox="0 0 256 244" style="enable-background:new 0 0 256 244;" xml:space="preserve">
<path d="M177.4,169.7c9.4-1,16.6-9.1,16.3-18.9c-0.3-9.8-8.5-17.6-18.2-17.6h-0.7c-10.1,0.3-17.9,8.8-17.6,18.9
	c0.3,4.9,2.3,9.1,5.2,12.1c-11.1,21.8-28,37.8-53.4,51.1c-17.3,9.1-35.2,12.4-53.1,10.1c-14.7-2-26.1-8.5-33.2-19.2
	c-10.4-16-11.4-33.2-2.6-50.5c6.2-12.4,16-21.5,22.2-26.1c-1.3-4.2-3.3-11.4-4.2-16.6c-47.2,34.2-42.4,80.5-28,102.3
	c10.8,16.3,32.6,26.4,56.7,26.4c6.5,0,13-0.7,19.5-2.3C127.9,231.3,159.5,206.5,177.4,169.7z M234.7,129.3
	c-24.8-29-61.2-45-102.9-45h-5.2c-2.9-5.9-9.1-9.8-16-9.8h-0.7C99.8,74.9,92,83.4,92.4,93.5c0.3,9.8,8.5,17.6,18.2,17.6h0.7
	c7.2-0.3,13.4-4.9,16-11.1h5.9c24.8,0,48.2,7.2,69.4,21.2c16.3,10.8,28,24.8,34.5,41.7c5.5,13.7,5.2,27-0.7,38.4
	c-9.1,17.3-24.4,26.7-44.6,26.7c-13,0-25.4-3.9-31.9-6.8c-3.6,3.3-10.1,8.5-14.7,11.7c14,6.5,28.3,10.1,42,10.1
	c31.3,0,54.4-17.3,63.2-34.5C259.8,189.6,259.1,157,234.7,129.3z M69.2,175.3c0.3,9.8,8.5,17.6,18.2,17.6h0.7
	c10.1-0.3,17.9-8.8,17.6-18.9c-0.3-9.8-8.5-17.6-18.2-17.6h-0.7c-0.7,0-1.6,0-2.3,0.3c-13.4-22.2-18.9-46.3-16.9-72.3
	c1.3-19.5,7.8-36.5,19.2-50.5c9.4-12.1,27.7-17.9,40.1-18.2c34.5-0.7,49.2,42.4,50.2,59.6c4.2,1,11.4,3.3,16.3,4.9
	C189.4,27.4,156.9,0,125.6,0C96.3,0,69.2,21.2,58.5,52.5c-15,41.7-5.2,81.8,13,113.4C69.9,168.1,68.9,171.7,69.2,175.3z"/>
</svg>
