<?xml version="1.0" encoding="utf-8"?>
<!-- Generator: Adobe Illustrator 25.2.3, SVG Export Plug-In . SVG Version: 6.00 Build 0)  -->
<svg version="1.1" id="Слой_1" xmlns="http://www.w3.org/2000/svg" xmlns:xlink="http://www.w3.org/1999/xlink" x="0px" y="0px"
	 viewBox="0 0 150 150" style="enable-background:new 0 0 150 150;" xml:space="preserve">
<g>
	<path d="M14.28,114.38c0-26.39,0-52.78,0-79.17c0.04-0.17,0.09-0.35,0.11-0.52c0.29-3.72,1.45-7.15,3.48-10.28
		c3.22-4.96,7.66-8.28,13.4-9.78c1.43-0.37,2.92-0.54,4.39-0.79c26.39,0,52.78,0,79.17,0c0.17,0.04,0.34,0.1,0.52,0.11
		c2.84,0.22,5.57,0.94,8.07,2.29c8.12,4.36,12.57,11.16,12.62,20.39c0.11,25.29,0.03,50.58,0.04,75.87c0,4.21-0.93,8.17-3.11,11.77
		c-4.2,6.94-10.39,10.73-18.48,11.32c-2.07,0.15-4.16,0.04-6.25,0.04c-23.72,0-47.44,0-71.15,0.01c-2.14,0-4.25-0.24-6.28-0.89
		c-8.27-2.63-13.59-8.14-15.85-16.54C14.61,116.96,14.5,115.66,14.28,114.38z M60.68,86.72c3.72,0,7.35,0.01,10.98-0.01
		c0.44,0,0.49,0.25,0.58,0.57c0.94,3.54,1.89,7.07,2.82,10.61c0.16,0.62,0.46,0.87,1.12,0.86c3.02-0.03,6.05-0.01,9.07-0.01
		c0.18,0,0.37,0.03,0.53-0.02c0.34-0.11,0.59-0.28,0.45-0.73c-0.88-2.95-1.75-5.9-2.61-8.86c-1.91-6.58-3.8-13.16-5.7-19.74
		c-1.35-4.67-2.7-9.35-4.05-14.02c-0.96-3.32-1.92-6.65-2.87-9.97c-0.13-0.44-0.35-0.68-0.85-0.68c-2.31,0.01-4.61,0.01-6.92,0
		c-0.5,0-0.74,0.22-0.88,0.72c-0.47,1.75-0.98,3.48-1.48,5.21c-2.16,7.46-4.32,14.92-6.47,22.38c-2.37,8.21-4.73,16.43-7.09,24.64
		c-0.24,0.83-0.09,1.05,0.81,1.05c2.89,0.01,5.78-0.01,8.67,0.01c0.52,0,0.77-0.17,0.9-0.67c0.48-1.88,0.99-3.76,1.49-5.63
		C59.67,90.55,60.17,88.65,60.68,86.72z M88.92,79.4C88.92,79.4,88.92,79.4,88.92,79.4c0.01,6.1,0.01,12.2,0.01,18.31
		c0,0.89,0.12,1.02,0.99,1.02c2.71,0,5.42,0,8.13,0c0.85,0,0.99-0.14,0.99-0.96c0-12.23,0-24.45,0-36.68c0-0.86-0.15-0.99-1.03-0.99
		c-2.62,0-5.24,0-7.86,0c-1.17,0-1.23,0.06-1.23,1.26C88.92,67.38,88.92,73.39,88.92,79.4z M93.91,55.64c0.38,0,0.76,0.04,1.14-0.01
		c2.21-0.28,4.03-1.24,4.79-3.43c0.78-2.26,0.47-4.44-1.3-6.2c-1.54-1.53-3.5-1.91-5.57-1.64c-4.92,0.65-6.11,5.89-4.21,8.78
		C89.96,55,91.76,55.71,93.91,55.64z"/>
	<path d="M70.16,77.93c-2.38,0-4.72,0-7.07,0c1.18-5.52,2.35-11.01,3.54-16.58C67.03,67.05,68.94,72.4,70.16,77.93z"/>
</g>
</svg>
