<?xml version="1.0" encoding="utf-8"?>
<!-- Generator: Adobe Illustrator 25.2.3, SVG Export Plug-In . SVG Version: 6.00 Build 0)  -->
<svg version="1.1" id="Слой_1" xmlns="http://www.w3.org/2000/svg" xmlns:xlink="http://www.w3.org/1999/xlink" x="0px" y="0px"
	 viewBox="0 0 150 150" style="enable-background:new 0 0 150 150;" xml:space="preserve">
<g>
	<path d="M68.59,32.52c0.12-0.65,0.26-1.25,0.34-1.86c0.41-3.19,0.67-6.38,0.3-9.59c-0.28-2.48-1-4.8-2.29-6.95
		c-0.43-0.72-0.86-1.44-1.31-2.15c-0.18-0.29-0.18-0.47,0.16-0.64C69.69,9.51,73.68,8.02,78,7.61c0.48-0.05,0.98,0.03,1.46,0.12
		c0.79,0.16,1.31,0.66,1.59,1.43c0.53,1.43,0.81,2.91,0.84,4.43c0.15,6.42-1.34,12.42-4.66,17.94c-0.72,1.2-1.45,2.4-2.18,3.6
		c-0.1,0.17-0.2,0.34-0.3,0.51c1.21,1.07,2.39,2.11,3.63,3.2c0.19-0.2,0.39-0.4,0.58-0.61c3.4-3.93,5.58-8.5,7.09-13.43
		c1.28-4.18,1.96-8.44,1.91-12.81c0-0.35,0-0.71,0-1.17c0.25,0.16,0.38,0.22,0.48,0.31c5.86,4.89,9.92,10.96,11.86,18.37
		c0.23,0.86,0.16,1.8,0.2,2.71c0.03,0.55-0.23,1-0.65,1.32c-0.69,0.53-1.38,1.07-2.11,1.55c-4.73,3.06-9.77,5.5-15.09,7.34
		c-0.22,0.08-0.44,0.16-0.66,0.25c-0.03,0.01-0.05,0.05-0.11,0.12c0.12,0.2,0.25,0.4,0.37,0.62c1.64,3.06,3.09,6.19,3.65,9.66
		c0.31,1.96,0.11,3.85-0.76,5.64c-0.07,0.14-0.17,0.28-0.32,0.53c-0.04-0.5,0-0.9-0.11-1.25c-0.31-0.98-0.53-2.04-1.06-2.9
		c-2.67-4.41-5.97-8.27-10.19-11.28c-2.29-1.64-4.77-2.88-7.6-3.3c-2.44-0.37-4.87-0.22-7.28,0.31c-1.68,0.36-2.6-0.19-3.13-1.84
		c-0.77-2.39,0.22-5.81,2.15-7.45c0.58-0.49,1.24-0.64,1.98-0.64c2.61,0,5.16,0.34,7.63,1.19C67.63,32.24,68.06,32.36,68.59,32.52z"
		/>
	<path d="M110.24,70.23c-1.48-1.35-2.95-2.71-4.44-4.05c-0.9-0.81-1.83-1.59-2.82-2.3c0.24,0.24,0.48,0.47,0.72,0.71
		c1.99,1.96,3.97,3.92,5.96,5.87c0.52,0.51,0.89,1.11,1.01,1.84c0.05,0.33,0.05,0.69-0.04,1.02c-0.2,0.76-0.72,1.01-1.41,0.63
		c-0.66-0.37-1.29-0.83-1.88-1.3c-3.06-2.45-6.04-5-9.17-7.35c-2.77-2.07-5.66-3.99-8.58-5.85c-1.72-1.1-2.34-2.44-1.83-4.42
		c0.35-1.39,0.62-2.82,0.72-4.25c0.07-1.03-0.18-2.09-0.31-3.13c-0.02-0.13-0.15-0.29-0.28-0.36c-1.46-0.86-1.84-2.83-0.68-4.07
		c0.56-0.6,1.28-1.08,1.99-1.5c0.99-0.57,2.04-1.04,3.08-1.54c3.02-1.43,5.88-3.13,8.54-5.17c0.26-0.2,0.53-0.38,0.86-0.6
		c0.13,0.24,0.24,0.43,0.34,0.64c0.96,1.98,1.95,3.95,2.86,5.96c2,4.42,6.49,5.26,10,4.12c0.99-0.32,1.96-0.7,2.95-0.98
		c0.33-0.09,0.73,0.02,1.09,0.04c-0.04,0.36,0.02,0.76-0.12,1.08c-0.9,2.07-2.14,3.89-4.08,5.15c-0.14,0.09-0.27,0.19-0.39,0.3
		c-0.56,0.49-0.55,1.06,0.03,1.52c0.99,0.78,2.12,1.01,3.35,0.87c1.5-0.17,2.88-0.75,4.26-1.33c4.51-1.89,8.61-4.49,12.61-7.28
		c1.75-1.22,3.53-2.39,5.33-3.53c0.62-0.4,1.33-0.67,2.01-0.97c0.15-0.06,0.44-0.08,0.5,0.01c0.1,0.13,0.12,0.39,0.05,0.54
		c-0.36,0.78-0.7,1.56-1.15,2.29c-1.68,2.74-3.88,5.05-6.07,7.37c-2.57,2.72-5.57,4.91-8.5,7.2c-1.49,1.17-2.99,2.33-4.42,3.58
		c-1.11,0.97-2.11,2.06-3.15,3.1c-0.12,0.12-0.21,0.28-0.31,0.43c-0.22-1.13-0.33-2.19-0.64-3.18c-0.81-2.57-2.42-4.63-4.4-6.41
		c-0.87-0.78-1.8-1.49-2.74-2.17c-1.29-0.93-2.83-1.22-4.36-1.45c-1.97-0.3-3.88-0.01-5.77,0.56c-0.33,0.1-0.59,0.2-0.59,0.64
		c0,0.2-0.17,0.45-0.33,0.6c-0.75,0.68-1.53,1.34-2.31,2.01c-0.41,0.35-0.82,0.23-1.2-0.04c-1.07-0.76-2.13-1.54-3.19-2.31
		c-0.54-0.4-1.1-0.79-1.62-1.21c-0.66-0.53-0.76-1.13-0.22-1.8c0.35-0.43,0.81-0.78,1.27-1.21c-1.11-0.77-2.36-1.04-3.77-1.08
		c0.1,0.18,0.16,0.31,0.24,0.43c0.54,0.87,0.84,1.81,0.84,2.84c0,1.13,0.08,2.26,0.05,3.39c-0.02,0.88,0.36,1.46,1.06,1.89
		c0.45,0.27,0.92,0.52,1.39,0.76c1.72,0.88,3.43,1.77,5.17,2.6c0.27,0.13,0.76,0.11,1-0.06c0.35-0.25,0.62-0.66,0.81-1.05
		c0.31-0.66,0.53-1.36,0.77-2.04c1.17-3.33,4.36-4.87,7.78-3.97c1.25,0.33,2.41,0.83,3.43,1.63c2.25,1.76,4.3,3.67,5.76,6.21
		c1.18,2.04,1.47,4.1,1,6.35c-0.61,2.93-2.37,4.93-4.92,6.34c-0.44,0.24-0.75,0.24-1.09-0.24c-0.43-0.6-0.98-1.11-1.48-1.66
		c0.62,0.52,1.24,1.05,1.86,1.57c0.6-0.51,0.66-0.82,0.22-1.46c-0.49-0.72-1.16-1.2-1.99-1.44c-0.2-0.06-0.52-0.05-0.64,0.07
		C110.16,69.71,110.24,70.01,110.24,70.23z M94.17,50.31c-0.57-0.39-1.01-0.39-1.43-0.08c-0.4,0.29-0.46,0.74-0.1,1.01
		c1.17,0.9,2.35,1.79,3.56,2.62c0.21,0.14,0.68,0.14,0.88,0c0.33-0.23,0.47-0.66,0.26-1.08c-0.09-0.18-0.24-0.34-0.37-0.5
		c-0.05,0.18,0.02,0.33-0.01,0.46c-0.06,0.23-0.13,0.53-0.3,0.64c-0.16,0.11-0.52,0.1-0.69-0.01c-0.89-0.6-1.76-1.23-2.61-1.9
		c-0.17-0.13-0.31-0.51-0.24-0.69c0.08-0.21,0.4-0.33,0.63-0.47C93.82,50.28,93.93,50.31,94.17,50.31z M96.02,51.73
		c-0.18,0.58-0.23,0.6-0.7,0.31c-0.2-0.12-0.41-0.24-0.59-0.39c-0.14-0.12-0.32-0.28-0.34-0.44c-0.01-0.1,0.24-0.24,0.51-0.49
		c-0.41,0-0.69-0.04-0.95,0.02c-0.08,0.02-0.18,0.4-0.14,0.43c0.68,0.52,1.37,1.02,2.08,1.49c0.1,0.06,0.37-0.01,0.47-0.12
		c0.08-0.08,0.04-0.31-0.01-0.45C96.29,51.97,96.15,51.87,96.02,51.73z"/>
</g>
<g>
	<path d="M77.88,77.6c0.07,0.77-0.1,1.64,0.26,2.29c1.47,2.67,1.43,2.81-1.29,4.5c-0.63,0.39-1.38,1.38-1.2,1.81
		c0.27,0.65,1.3,1.47,2.05,1.5c3.32,0.15,6.66,0.06,9.99,0.03c0.27,0,0.55-0.19,0.8-0.32c1.41-0.75,1.55-0.7,2.27,0.62
		c-1.64,0.72-3.19,1.64-4.89,2.07c-1.23,0.31-2.7,0.07-4.02-0.13c-2.02-0.32-3.97-1.01-6-1.2c-2.5-0.23-3.48,0.84-3.33,2.99
		c0.26,3.64,0.38,7.28,0.75,10.91c0.1,0.94,0.74,1.97,1.47,2.69c2.92,2.89,6,5.65,8.95,8.51c0.43,0.42,0.5,1.11,0.73,1.68
		c-0.22,0.13-0.44,0.27-0.66,0.4c-0.94-0.85-1.91-1.68-2.82-2.55c-2.25-2.16-4.35-4.45-6.76-6.47c-2.81-2.36-4.51-4.84-2.92-8.29
		c0.11-0.24,0.16-0.55,0.08-0.78c-0.26-0.81-0.58-1.6-0.88-2.39c-0.7,0.57-1.61,1.04-2.07,1.74c-2.61,3.92-5.26,7.74-9.93,10.21
		c-3,1.58-5.79,3.47-8.56,5.36c-1.14,0.78-1.96,1.91-2.93,2.88c-0.29,0.29-0.54,0.74-0.91,0.84c-2.39,0.65-3.37,2.41-4.35,4.12
		c-3.19,5.57-6.11,11.26-9.53,16.72c-1.74,2.78-4.32,5.18-6.56,7.72c-0.17,0.19-0.67,0.17-1.55,0.36c0.37-0.82,0.47-1.38,0.83-1.78
		c7.15-7.94,11.88-17.07,16.92-26.03c1.01-1.8,2.04-3.25,4.46-3.92c1.44-0.4,2.63-1.55,3.83-2.45c4.02-3.03,7.08-7.01,12.02-9.16
		c0.6-0.26,0.89-1.05,0.96-1.93c-0.45,0.15-0.95,0.23-1.34,0.46c-3.32,2.01-6.68,3.98-9.91,6.1c-2.97,1.94-6.38,1.41-10.16,1.75
		c0.5-1.03,0.62-2.12,1.26-2.44c3.11-1.58,2.8-4.97,5.21-6.97c1.87-1.55,3.17-3.61,4.73-5.45c0.01,0.01-0.1-0.13-0.21-0.13
		c-7.58,0.17-15.16,0.3-22.73,0.57c-1.03,0.04-2.14,0.66-3,1.24c-3.5,2.36-6.97,4.78-10.37,7.25c-2.99,2.18-6.23,1.16-9.4,1.07
		c-0.03-0.18-0.06-0.35-0.09-0.53c0.47-0.09,0.98-0.34,1.39-0.25c2.71,0.58,4.92-0.35,7.11-1.57c4.06-2.25,8.3-4.26,11.17-7.82
		c0.47-0.59,1.68-0.96,2.58-1.01c8.45-0.56,16.91-0.99,25.35-1.56c1.1-0.07,2.37-0.54,3.16-1.19c1.66-1.36,2.98-3.04,4.6-4.44
		c1.27-1.1,2.71-2.1,4.24-2.91c1.31-0.7,1.73-1.29,0.91-2.53c-0.54-0.82-0.71-1.83-1.05-2.75c0.23-0.1,0.45-0.21,0.68-0.31
		c0.69,0.52,1.38,1.04,2.57,1.93c-0.39-0.9-0.62-1.27-0.71-1.67c-0.09-0.4-0.09-0.82-0.03-1.23c0.01-0.07,0.71-0.18,0.77-0.1
		c0.26,0.36,0.51,0.77,0.57,1.19c0.09,0.6,0.02,1.21,0.27,1.98c0.6-2.25,2.57-1.68,4.7-1.74c-0.48-6.01-0.96-11.91-1.44-17.82
		c2.3,2.74,1.57,5.98,1.83,9.01c0.27,3.15,0.06,6.33,0.06,9.81c1.05-0.36,1.45-0.5,1.85-0.64C77.75,77.49,77.82,77.55,77.88,77.6z"
		/>
	<path d="M77.69,77.44c3.81-4.15,8.77-6.69,14.71-7.89c-4.84,2.69-9.68,5.37-14.52,8.06C77.82,77.55,77.75,77.49,77.69,77.44z"/>
</g>
</svg>
