<?xml version="1.0" encoding="utf-8"?>
<!-- Generator: Adobe Illustrator 25.2.3, SVG Export Plug-In . SVG Version: 6.00 Build 0)  -->
<svg version="1.1" id="Слой_1" xmlns="http://www.w3.org/2000/svg" xmlns:xlink="http://www.w3.org/1999/xlink" x="0px" y="0px"
	 viewBox="0 0 150 150" style="enable-background:new 0 0 150 150;" xml:space="preserve">
<g>
	<path d="M78.83,12.53c-31.68,0-57.36,25.68-57.36,57.36c0,10.51,2.84,20.34,7.77,28.81l-12.75,38.26l41.23-13.74
		c6.54,2.59,13.65,4.03,21.11,4.03c31.68,0,57.36-25.68,57.36-57.36C136.19,38.21,110.51,12.53,78.83,12.53z M80.8,67.32
		c-0.76,1.88-1.87,3.47-3.33,4.76c-1.46,1.29-3.24,2.27-5.36,2.94s-4.61,1.01-7.48,1.01h-3.63V89.9c0,0.22-0.07,0.43-0.22,0.6
		c-0.15,0.18-0.39,0.33-0.72,0.44c-0.34,0.11-0.78,0.2-1.34,0.27c-0.56,0.07-1.28,0.1-2.15,0.1c-0.85,0-1.56-0.03-2.13-0.1
		s-1.02-0.16-1.36-0.27c-0.34-0.11-0.57-0.26-0.71-0.44c-0.13-0.18-0.2-0.38-0.2-0.6V50.79c0-1.05,0.27-1.84,0.82-2.37
		c0.55-0.53,1.27-0.79,2.17-0.79h10.25c1.03,0,2.01,0.04,2.94,0.12c0.93,0.08,2.04,0.25,3.34,0.5c1.3,0.26,2.62,0.73,3.95,1.43
		c1.33,0.69,2.47,1.57,3.41,2.64c0.94,1.06,1.66,2.31,2.15,3.73c0.49,1.42,0.74,3.02,0.74,4.79C81.95,63.28,81.56,65.44,80.8,67.32z
		 M112.61,89.11c-0.06,0.46-0.14,0.84-0.25,1.14c-0.11,0.3-0.25,0.52-0.42,0.66c-0.17,0.13-0.36,0.2-0.59,0.2H91.42
		c-0.74,0-1.36-0.22-1.87-0.66c-0.5-0.44-0.76-1.15-0.76-2.13V48.84c0-0.22,0.07-0.43,0.22-0.6c0.15-0.18,0.39-0.32,0.72-0.44
		c0.34-0.11,0.79-0.2,1.36-0.27c0.57-0.07,1.28-0.1,2.13-0.1c0.87,0,1.59,0.03,2.15,0.1c0.56,0.07,1.01,0.16,1.34,0.27
		c0.34,0.11,0.58,0.26,0.72,0.44c0.15,0.18,0.22,0.38,0.22,0.6v34.98h13.68c0.22,0,0.42,0.06,0.59,0.18
		c0.17,0.12,0.31,0.33,0.42,0.6c0.11,0.28,0.2,0.65,0.25,1.11c0.06,0.46,0.08,1.02,0.08,1.7S112.67,88.65,112.61,89.11z"/>
	<path d="M69.92,55.52c-0.78-0.47-1.61-0.77-2.47-0.89c-0.86-0.12-1.75-0.18-2.67-0.18h-3.76V69.2h3.97c1.41,0,2.59-0.19,3.55-0.57
		c0.95-0.38,1.73-0.91,2.34-1.6c0.6-0.68,1.06-1.5,1.38-2.45c0.31-0.95,0.47-1.99,0.47-3.11c0-1.52-0.27-2.78-0.81-3.76
		C71.36,56.72,70.7,55.99,69.92,55.52z"/>
</g>
</svg>
