<?xml version="1.0" encoding="utf-8"?>
<!-- Generator: Adobe Illustrator 25.2.3, SVG Export Plug-In . SVG Version: 6.00 Build 0)  -->
<svg version="1.1" id="Слой_1" xmlns="http://www.w3.org/2000/svg" xmlns:xlink="http://www.w3.org/1999/xlink" x="0px" y="0px"
	 viewBox="0 0 150 150" style="enable-background:new 0 0 150 150;" xml:space="preserve">
<path d="M37.69,54.65c-0.63-4.32-1.36-8.43-1.8-12.58c-0.51-4.74-0.22-9.46,1.49-13.99c2.6-6.9,8.46-10.09,15.66-8.53
	C59.7,21,65.1,24.77,70.24,29c1.59,1.31,3.09,2.71,4.74,4.16c1.55-1.36,3.06-2.75,4.63-4.05c5.09-4.19,10.42-7.98,17-9.47
	c7.72-1.75,13.74,1.63,16.25,9.13c1.86,5.55,1.68,11.24,0.87,16.92c-0.42,2.93-1.02,5.83-1.57,8.91c1.12,0.37,2.25,0.75,3.38,1.13
	c5.26,1.75,10.37,3.83,14.83,7.18c1.87,1.41,3.67,3.02,5.15,4.84c4.19,5.13,4.21,11.11,0.2,16.39c-3.33,4.38-7.9,7.14-12.82,9.32
	c-3.48,1.54-7.09,2.77-10.71,4.17c0.52,2.91,1.13,5.87,1.56,8.85c0.75,5.26,0.9,10.52-0.53,15.71c-2.36,8.59-8.95,12.36-17.57,10.03
	c-5.62-1.52-10.36-4.67-14.83-8.26c-1.98-1.59-3.85-3.29-5.83-4.99c-1.98,1.7-3.86,3.41-5.83,5c-4.18,3.36-8.61,6.31-13.79,7.95
	c-9.6,3.05-16.94-1.28-18.96-11.16c-1.42-6.94-0.49-13.76,0.92-20.57c0.18-0.87,0.37-1.75,0.54-2.55c-3.66-1.41-7.2-2.64-10.64-4.12
	c-4.31-1.87-8.3-4.28-11.58-7.73c-5.73-6.04-5.82-13.24-0.16-19.33c4.32-4.66,9.88-7.35,15.7-9.59
	C33.34,56.06,35.54,55.38,37.69,54.65z M75.04,55.24c-3.44,0.15-6.9,0.24-10.34,0.51c-0.75,0.06-1.75,0.61-2.13,1.24
	c-3.5,5.88-6.93,11.81-10.26,17.78c-0.38,0.67-0.35,1.93,0.03,2.61c3.3,5.92,6.69,11.81,10.18,17.62c0.43,0.72,1.6,1.39,2.43,1.41
	c6.67,0.12,13.34,0.05,20,0.08c1.22,0.01,2.04-0.43,2.65-1.5c3.36-5.89,6.8-11.74,10.11-17.67c0.36-0.64,0.4-1.83,0.05-2.46
	c-3.37-6.03-6.83-12.01-10.36-17.94c-0.37-0.62-1.4-1.13-2.16-1.19C81.85,55.47,78.45,55.39,75.04,55.24z M39.15,59.92
	c-6.19,1.81-12.31,4.03-17.53,8.16c-6.59,5.22-6.71,10.96,0.11,15.91c3.62,2.63,7.9,4.39,11.97,6.37c1.76,0.86,3.72,1.28,5.44,1.86
	c2.13-5.31,4.16-10.35,6.16-15.41c0.16-0.41,0.21-0.98,0.06-1.38C43.35,70.31,41.28,65.21,39.15,59.92z M110.8,59.87
	c-0.24,0.33-0.38,0.46-0.44,0.62c-1.87,4.86-3.76,9.71-5.56,14.59c-0.24,0.64-0.15,1.54,0.1,2.19c1.16,3.06,2.46,6.06,3.65,9.1
	c0.74,1.9,1.37,3.84,2.18,6.12c3.86-1.54,7.69-2.74,11.2-4.57c3.07-1.61,6.05-3.62,8.57-5.99c3.83-3.61,3.77-7.9,0.13-11.72
	C125.2,64.51,118,62.15,110.8,59.87z M71.15,36.77c-2.94-2.36-5.75-4.97-8.91-7.05c-2.8-1.84-5.86-3.49-9.03-4.53
	c-5.99-1.96-9.92,0.44-11.38,6.57c-1.72,7.23-0.31,14.29,1.29,21.31c0.34,0.05,0.52,0.12,0.69,0.09c5.26-0.82,10.52-1.64,15.77-2.5
	c0.43-0.07,0.92-0.33,1.19-0.66C64.14,45.73,67.49,41.43,71.15,36.77z M106.87,53.04c1.56-6.56,2.72-13.15,1.62-19.93
	c-1.21-7.42-5.71-10.1-12.83-7.67c-0.29,0.1-0.57,0.19-0.85,0.31c-6.09,2.53-11.12,6.57-15.72,11.2c-0.07,0.07-0.04,0.23-0.02,0.12
	c3.43,4.36,6.74,8.61,10.09,12.83c0.27,0.34,0.72,0.69,1.14,0.75C95.73,51.46,101.17,52.22,106.87,53.04z M43.07,98.92
	c-0.5,2.62-1.06,5.09-1.42,7.59c-0.72,5.13-1.12,10.28,0.61,15.31c1.58,4.6,4.96,6.55,9.67,5.47c7.84-1.79,13.52-7,19.22-12.21
	c-2.35-2.84-4.84-5.32-6.69-8.2c-2.52-3.95-5.52-6.57-10.48-6.11c-0.17,0.02-0.36-0.07-0.53-0.1
	C50.05,100.09,46.66,99.52,43.07,98.92z M106.9,99.08c-5.54,0.78-10.81,1.52-16.09,2.27c-0.12,0.02-0.27,0-0.36,0.06
	c-0.56,0.41-1.22,0.76-1.64,1.28c-2.24,2.79-4.41,5.64-6.65,8.43c-1.04,1.31-2.18,2.54-3.37,3.91c1.38,1.25,2.6,2.43,3.89,3.52
	c4.1,3.46,8.36,6.66,13.57,8.29c6.42,2,10.45-0.22,11.95-6.73C109.86,112.98,108.46,106.03,106.9,99.08z M67.35,102.07
	c2.68,3.2,5.05,6.03,7.65,9.14c2.6-3.13,4.98-6,7.59-9.14C77.35,102.07,72.64,102.07,67.35,102.07z M56.32,56.36
	c-4.09,0.72-7.8,1.37-11.82,2.07c1.43,3.86,2.73,7.36,4.15,11.21C51.3,65.05,53.68,60.92,56.32,56.36z M105.5,58.41
	c-4.08-0.7-7.78-1.34-11.81-2.03c2.62,4.54,5.03,8.69,7.68,13.27C102.79,65.77,104.07,62.29,105.5,58.41z M93.7,95.72
	c4.13-0.72,7.83-1.37,11.79-2.07c-1.43-3.86-2.73-7.37-4.16-11.22C98.7,87.03,96.33,91.15,93.7,95.72z M48.63,82.43
	c-1.43,3.91-2.72,7.43-4.13,11.26c4.02,0.69,7.7,1.31,11.77,2.01C53.62,91.07,51.25,86.96,48.63,82.43z M74.99,40.9
	c-2.57,3.08-4.93,5.92-7.47,8.96c5.16,0,9.87,0,14.99,0C79.9,46.75,77.54,43.95,74.99,40.9z"/>
<path d="M86.34,76.01c0.02,6.39-5,11.42-11.39,11.42c-6.25,0-11.27-5.05-11.29-11.34c-0.01-6.37,5.08-11.49,11.39-11.45
	C81.32,64.69,86.32,69.72,86.34,76.01z"/>
</svg>
