<?xml version="1.0" encoding="utf-8"?>
<!-- Generator: Adobe Illustrator 25.2.3, SVG Export Plug-In . SVG Version: 6.00 Build 0)  -->
<svg version="1.1" id="Слой_1" xmlns="http://www.w3.org/2000/svg" xmlns:xlink="http://www.w3.org/1999/xlink" x="0px" y="0px"
	 viewBox="0 0 150 150" style="enable-background:new 0 0 150 150;" xml:space="preserve">
<path d="M12.11,111.75c5.53-9.93,10.78-20.02,16.65-29.75c10.27-17.03,21.78-33.16,36.41-46.81c7.08-6.61,14.78-12.34,24.11-15.45
	c2.14-0.71,4.34-1.22,6.52-1.82c3.21,0,6.42,0,9.64,0c3.45,1.02,7.04,1.7,10.31,3.13c9.06,3.96,14.43,11.39,17.88,20.35
	c2.44,6.35,3.75,12.96,3.89,19.77c0.11,5.06-2.64,8.25-7.1,8.35c-4.54,0.1-7.6-3.13-7.71-8.17c-0.13-5.99-1.35-11.73-3.99-17.11
	c-4.99-10.16-14.51-13.98-25.22-10.2c-8,2.82-14.42,8.02-20.33,13.87C58.56,62.32,47.48,79.37,37.15,96.93
	c-3.46,5.89-6.7,11.92-9.81,17.99c-1.52,2.97-3.31,5.42-6.61,6.46c-0.85,0-1.69,0-2.54,0c-2.82-1-4.88-2.83-6.09-5.58
	C12.11,114.45,12.11,113.1,12.11,111.75z"/>
<path d="M137.89,85.88c-1.26,3.6-3.31,6.24-7.55,6.22c-3.77-0.01-6.73-2.5-7.25-6.08c-0.57-3.98,1.46-7.21,5.27-8.34
	c3.4-1.01,7.05,0.64,8.64,3.92c0.28,0.59,0.59,1.16,0.89,1.74C137.89,84.19,137.89,85.03,137.89,85.88z"/>
</svg>
