<?xml version="1.0" encoding="utf-8"?>
<!-- Generator: Adobe Illustrator 25.2.3, SVG Export Plug-In . SVG Version: 6.00 Build 0)  -->
<svg version="1.1" id="Слой_1" xmlns="http://www.w3.org/2000/svg" xmlns:xlink="http://www.w3.org/1999/xlink" x="0px" y="0px"
	 viewBox="0 0 150 150" style="enable-background:new 0 0 150 150;" xml:space="preserve">
<path d="M27.89,35.39c0-0.13,0-0.27,0-0.4c31.4,0,62.8,0,94.22,0c-0.09,0.95-0.16,1.8-0.24,2.65c-0.42,4.58-0.84,9.16-1.26,13.74
	c-0.43,4.67-0.86,9.34-1.3,14c-0.38,4.09-0.75,8.18-1.13,12.26c-0.43,4.65-0.86,9.29-1.29,13.94c-0.38,4.11-0.75,8.22-1.13,12.33
	c-0.43,4.62-0.86,9.25-1.29,13.87c-0.38,4.09-0.75,8.18-1.12,12.26c-0.04,0.45-0.18,0.7-0.67,0.83
	c-10.73,2.87-21.46,5.76-32.19,8.65c-1.74,0.47-3.48,0.98-5.22,1.47c-0.18,0-0.36,0-0.54,0c-0.2-0.08-0.4-0.19-0.61-0.24
	c-2.2-0.6-4.41-1.18-6.62-1.78c-10.06-2.7-20.11-5.41-30.17-8.1c-0.48-0.13-0.64-0.36-0.68-0.82c-0.1-1.3-0.21-2.59-0.34-3.89
	c-0.7-7.53-1.41-15.05-2.1-22.58c-0.65-7.06-1.29-14.12-1.94-21.17c-0.69-7.53-1.41-15.05-2.1-22.58
	c-0.65-7.06-1.29-14.12-1.94-21.17C28.16,37.57,28.01,36.48,27.89,35.39z M89.17,89.42c-0.06,0.92-0.1,1.68-0.15,2.43
	c-0.24,4.01-0.49,8.02-0.71,12.03c-0.03,0.51-0.22,0.73-0.71,0.86c-4.06,1.12-8.11,2.27-12.17,3.39c-0.35,0.1-0.76,0.09-1.11,0.01
	c-3.91-0.97-7.82-1.98-11.73-2.94c-0.46-0.11-0.61-0.3-0.64-0.76c-0.12-1.84-0.28-3.67-0.43-5.5c-0.09-1.06-0.19-2.13-0.29-3.18
	c-4.01,0-7.95,0-11.94,0c0.02,0.35,0.02,0.66,0.05,0.97c0.48,5.45,0.96,10.91,1.42,16.36c0.04,0.51,0.2,0.71,0.69,0.86
	c7.69,2.26,15.38,4.54,23.07,6.81c0.3,0.09,0.67,0.08,0.97,0c7.68-2.22,15.36-4.46,23.04-6.68c0.4-0.11,0.53-0.3,0.57-0.69
	c0.31-3.64,0.63-7.29,0.94-10.93c0.62-7.2,1.25-14.39,1.87-21.59c0.08-0.91,0.14-1.81,0.21-2.79c-9.02,0-17.95,0-26.89,0
	c0.2-0.2,0.42-0.3,0.64-0.4c8.9-3.81,17.79-7.62,26.7-11.41c0.39-0.17,0.58-0.35,0.63-0.81c0.27-2.9,0.59-5.8,0.88-8.7
	c0.08-0.75,0.13-1.5,0.2-2.28c-19.77,0-39.43,0-59.13,0c0.01,0.2,0.02,0.35,0.04,0.5c0.42,3.41,0.87,6.81,1.25,10.22
	c0.07,0.63,0.24,0.81,0.88,0.81c9.4-0.02,18.81-0.01,28.21-0.01c0.23,0,0.46,0,0.69,0c-0.19,0.23-0.38,0.31-0.58,0.4
	c-9.16,3.82-18.32,7.63-27.48,11.44c-0.41,0.17-0.56,0.35-0.52,0.83c0.19,1.99,0.32,3.98,0.47,5.97c0.12,1.56,0.26,3.12,0.4,4.79
	C62.05,89.42,75.55,89.42,89.17,89.42z"/>
<path d="M67.88,20.93c1.86,0,3.68,0,5.66,0c-0.25-0.27-0.38-0.43-0.53-0.58c-1.58-1.56-3.17-3.11-4.73-4.7
	c-0.25-0.25-0.43-0.68-0.44-1.03c-0.05-1.64-0.02-3.28-0.02-4.92c0-0.22,0-0.44,0-0.68c4.87,0,9.67,0,14.5,0c0,2.06,0,4.09,0,6.18
	c-1.86,0-3.7,0-5.73,0c0.26,0.29,0.41,0.46,0.57,0.62c1.6,1.57,3.21,3.14,4.79,4.73c0.19,0.19,0.38,0.48,0.39,0.72
	c0.03,1.68,0.02,3.37,0.01,5.05c0,0.08-0.04,0.17-0.07,0.28c-4.79,0-9.56,0-14.4,0C67.88,24.74,67.88,22.9,67.88,20.93z"/>
<path d="M102.92,26.59c-4.87,0-9.65,0-14.47,0c0-1.88,0-3.73,0-5.65c1.86,0,3.69,0,5.72,0c-0.29-0.3-0.45-0.46-0.61-0.63
	c-1.58-1.56-3.17-3.11-4.73-4.7c-0.23-0.24-0.4-0.65-0.41-0.98c-0.04-1.86-0.02-3.72-0.02-5.61c4.86,0,9.65,0,14.5,0
	c0,2.03,0,4.06,0,6.18c-1.86,0-3.7,0-5.55,0c-0.08,0.1-0.16,0.21-0.23,0.31c0.22,0.11,0.48,0.17,0.65,0.33
	c1.6,1.55,3.19,3.1,4.75,4.68c0.23,0.24,0.4,0.65,0.41,0.98c0.04,1.46,0.02,2.92,0.02,4.38C102.95,26.11,102.94,26.33,102.92,26.59z
	"/>
<path d="M47.12,9.01c4.82,0,9.59,0,14.42,0c0,2.04,0,4.07,0,6.19c-2.7,0-5.42,0-8.18,0c0,1.94,0,3.79,0,5.71c2.71,0,5.42,0,8.18,0
	c0,1.91,0,3.76,0,5.66c-4.78,0-9.57,0-14.42,0C47.12,20.75,47.12,14.91,47.12,9.01z"/>
</svg>
