<?xml version="1.0" encoding="utf-8"?>
<!-- Generator: Adobe Illustrator 25.2.3, SVG Export Plug-In . SVG Version: 6.00 Build 0)  -->
<svg version="1.1" id="Слой_1" xmlns="http://www.w3.org/2000/svg" xmlns:xlink="http://www.w3.org/1999/xlink" x="0px" y="0px"
	 viewBox="0 0 150 150" style="enable-background:new 0 0 150 150;" xml:space="preserve">
<path d="M77.49,12.53c-31.68,0-57.36,25.68-57.36,57.36c0,10.51,2.84,20.34,7.77,28.81l-12.75,38.26l41.23-13.74
	c6.54,2.59,13.65,4.03,21.11,4.03c31.68,0,57.36-25.68,57.36-57.36C134.85,38.21,109.17,12.53,77.49,12.53z M70.1,91.76
	c-0.06,0.44-0.14,0.79-0.25,1.06c-0.11,0.27-0.25,0.47-0.42,0.59c-0.17,0.12-0.35,0.18-0.55,0.18H47.03c-0.74,0-1.36-0.22-1.87-0.66
	s-0.76-1.15-0.76-2.13V52.89c0-0.99,0.25-1.7,0.76-2.13s1.13-0.66,1.87-0.66h21.71c0.2,0,0.38,0.06,0.54,0.17
	c0.16,0.11,0.29,0.31,0.4,0.59c0.11,0.28,0.2,0.64,0.25,1.08c0.06,0.44,0.08,0.99,0.08,1.66c0,0.63-0.03,1.16-0.08,1.6
	c-0.06,0.44-0.14,0.79-0.25,1.06c-0.11,0.27-0.25,0.47-0.4,0.59c-0.16,0.12-0.34,0.18-0.54,0.18H53.22v10.62h13.14
	c0.2,0,0.39,0.06,0.55,0.18c0.17,0.12,0.31,0.31,0.42,0.57c0.11,0.26,0.2,0.6,0.25,1.04c0.06,0.44,0.08,0.97,0.08,1.6
	c0,0.65-0.03,1.19-0.08,1.61c-0.06,0.43-0.14,0.77-0.25,1.03c-0.11,0.26-0.25,0.44-0.42,0.55c-0.17,0.11-0.35,0.17-0.55,0.17H53.22
	v12.27h15.66c0.2,0,0.39,0.06,0.55,0.18c0.17,0.12,0.31,0.32,0.42,0.59c0.11,0.27,0.2,0.62,0.25,1.06c0.06,0.44,0.08,0.98,0.08,1.63
	C70.19,90.78,70.16,91.32,70.1,91.76z M113.84,90.5c0,0.52-0.09,0.97-0.27,1.38c-0.18,0.4-0.42,0.74-0.72,1.01s-0.66,0.47-1.08,0.59
	c-0.42,0.12-0.84,0.18-1.26,0.18h-3.76c-0.78,0-1.46-0.08-2.03-0.24c-0.57-0.16-1.1-0.44-1.58-0.86c-0.48-0.41-0.95-0.97-1.39-1.68
	c-0.45-0.71-0.95-1.62-1.51-2.74L89.41,67.81c-0.63-1.21-1.27-2.51-1.92-3.92c-0.65-1.4-1.23-2.76-1.75-4.08h-0.07
	c0.09,1.61,0.16,3.22,0.2,4.82c0.04,1.6,0.07,3.25,0.07,4.96v22.75c0,0.22-0.06,0.43-0.18,0.6c-0.12,0.18-0.34,0.33-0.64,0.45
	c-0.3,0.12-0.71,0.22-1.23,0.29c-0.52,0.07-1.18,0.1-1.98,0.1c-0.78,0-1.43-0.03-1.95-0.1c-0.52-0.07-0.92-0.16-1.21-0.29
	c-0.29-0.12-0.49-0.27-0.6-0.45c-0.11-0.18-0.17-0.38-0.17-0.6V53.26c0-1.05,0.31-1.84,0.92-2.37c0.62-0.53,1.37-0.79,2.27-0.79
	h4.74c0.85,0,1.57,0.07,2.15,0.22c0.58,0.15,1.1,0.39,1.56,0.72c0.46,0.34,0.89,0.8,1.29,1.39c0.4,0.59,0.82,1.33,1.24,2.2
	l8.47,15.9c0.49,0.96,0.98,1.91,1.46,2.84c0.48,0.93,0.95,1.86,1.39,2.79c0.45,0.93,0.88,1.84,1.31,2.74
	c0.43,0.9,0.84,1.79,1.24,2.69h0.03c-0.07-1.57-0.12-3.2-0.15-4.91c-0.03-1.7-0.05-3.33-0.05-4.87v-20.4c0-0.22,0.07-0.43,0.2-0.6
	c0.13-0.18,0.36-0.34,0.67-0.47c0.31-0.13,0.73-0.23,1.24-0.29c0.52-0.06,1.18-0.08,1.98-0.08c0.76,0,1.4,0.03,1.92,0.08
	c0.52,0.06,0.91,0.15,1.19,0.29c0.28,0.13,0.48,0.29,0.59,0.47c0.11,0.18,0.17,0.38,0.17,0.6V90.5z"/>
</svg>
